<?xml version="1.0" standalone="no"?>
<!DOCTYPE svg PUBLIC "-//W3C//DTD SVG 20010904//EN"
 "http://www.w3.org/TR/2001/REC-SVG-20010904/DTD/svg10.dtd">
<svg version="1.0" xmlns="http://www.w3.org/2000/svg"
 width="245.000000pt" height="245.000000pt" viewBox="0 0 245.000000 245.000000"
 preserveAspectRatio="xMidYMid meet">
<metadata>
Created by potrace 1.11, written by Peter Selinger 2001-2013
</metadata>
<g transform="translate(0.000000,245.000000) scale(0.100000,-0.100000)"
fill="#000000" stroke="none">
<path d="M1099 2438 c-1 -7 -1 -44 -1 -81 -1 -42 -5 -70 -12 -72 -6 -2 -40 -6
-76 -9 -259 -22 -540 -177 -705 -387 -109 -140 -171 -269 -209 -439 -20 -88
-23 -126 -21 -240 4 -157 7 -177 40 -286 85 -278 263 -497 518 -634 119 -65
296 -116 423 -123 l39 -2 1 -80 1 -80 87 2 c254 7 543 135 750 332 222 213
352 479 382 785 l6 66 -70 -2 -70 -3 3 35 c2 19 4 37 4 41 1 3 29 5 64 5 l62
-1 1 30 c1 17 -2 57 -7 90 -47 330 -218 617 -489 821 -118 89 -320 186 -431
208 -13 2 -44 9 -69 14 -25 6 -84 14 -132 17 -70 6 -88 4 -89 -7z"/>
</g>
</svg>
